<?xml version="1.0" encoding="UTF-8"?>
<svg xmlns="http://www.w3.org/2000/svg" xmlns:xlink="http://www.w3.org/1999/xlink" width="375pt" height="374.999991pt" viewBox="0 0 375 374.999991" version="1.2">
<defs>
<clipPath id="clip1">
  <path d="M 43.433594 43.433594 L 331.433594 43.433594 L 331.433594 331.433594 L 43.433594 331.433594 Z M 43.433594 43.433594 "/>
</clipPath>
</defs>
<g id="surface1">
<g clip-path="url(#clip1)" clip-rule="nonzero">
<path style=" stroke:none;fill-rule:nonzero;fill:rgb(96.469116%,96.469116%,96.469116%);fill-opacity:1;" d="M 187.433594 43.433594 C 107.910156 43.433594 43.433594 107.910156 43.433594 187.433594 C 43.433594 266.957031 107.910156 331.433594 187.433594 331.433594 C 266.957031 331.433594 331.433594 266.957031 331.433594 187.433594 C 331.433594 107.910156 266.957031 43.433594 187.433594 43.433594 Z M 133.386719 108.269531 C 143.488281 108.269531 150.222656 115 150.222656 123.976562 C 150.222656 132.953125 143.488281 139.683594 132.269531 139.683594 C 122.164062 139.699219 115.433594 132.953125 115.433594 123.976562 C 115.433594 115 122.164062 108.269531 133.386719 108.269531 Z M 151.433594 247.433594 L 115.433594 247.433594 L 115.433594 151.433594 L 151.433594 151.433594 Z M 271.433594 247.433594 L 237.546875 247.433594 L 237.546875 194.96875 C 237.546875 180.460938 228.507812 177.113281 225.125 177.113281 C 221.742188 177.113281 210.4375 179.34375 210.4375 194.96875 C 210.4375 197.203125 210.4375 247.433594 210.4375 247.433594 L 175.433594 247.433594 L 175.433594 151.433594 L 210.449219 151.433594 L 210.449219 164.824219 C 214.960938 157.011719 223.996094 151.433594 240.941406 151.433594 C 257.886719 151.433594 271.433594 164.824219 271.433594 194.96875 Z M 271.433594 247.433594 "/>
</g>
</g>
</svg>
