<?xml version="1.0" encoding="UTF-8"?>
<svg xmlns="http://www.w3.org/2000/svg" xmlns:xlink="http://www.w3.org/1999/xlink" width="375pt" height="374.999991pt" viewBox="0 0 375 374.999991" version="1.2">
<defs>
<clipPath id="clip1">
  <path d="M 11.9375 24.71875 L 337.4375 24.71875 L 337.4375 350.21875 L 11.9375 350.21875 Z M 11.9375 24.71875 "/>
</clipPath>
</defs>
<g id="surface1">
<g clip-path="url(#clip1)" clip-rule="nonzero">
<path style=" stroke:none;fill-rule:nonzero;fill:rgb(96.469116%,96.469116%,96.469116%);fill-opacity:1;" d="M 174.546875 24.621094 C 84.6875 24.621094 11.839844 97.46875 11.839844 187.328125 C 11.839844 277.1875 84.6875 350.03125 174.546875 350.03125 C 264.40625 350.03125 337.25 277.1875 337.25 187.328125 C 337.25 97.46875 264.40625 24.621094 174.546875 24.621094 Z M 94.507812 128.199219 L 254.585938 128.199219 C 255.523438 128.199219 256.433594 128.289062 257.335938 128.433594 L 174.546875 180.054688 L 91.757812 128.433594 C 92.65625 128.292969 93.570312 128.199219 94.507812 128.199219 Z M 272.015625 237.6875 C 272.015625 247.316406 264.210938 255.121094 254.582031 255.121094 L 94.503906 255.121094 C 84.875 255.121094 77.070312 247.316406 77.070312 237.6875 L 77.070312 145.632812 C 77.070312 144.613281 77.179688 143.625 77.34375 142.652344 L 169.335938 200.011719 C 169.449219 200.082031 169.570312 200.132812 169.683594 200.195312 C 169.804688 200.261719 169.929688 200.328125 170.054688 200.386719 C 170.707031 200.71875 171.375 200.992188 172.058594 201.167969 C 172.128906 201.1875 172.199219 201.199219 172.269531 201.21875 C 173.019531 201.394531 173.777344 201.503906 174.539062 201.503906 C 174.539062 201.503906 174.542969 201.503906 174.546875 201.503906 C 174.550781 201.503906 174.550781 201.503906 174.554688 201.503906 C 175.316406 201.503906 176.074219 201.394531 176.828125 201.21875 C 176.894531 201.199219 176.964844 201.1875 177.035156 201.167969 C 177.71875 200.988281 178.390625 200.71875 179.042969 200.386719 C 179.164062 200.328125 179.289062 200.261719 179.410156 200.195312 C 179.527344 200.132812 179.648438 200.082031 179.757812 200.011719 L 271.742188 142.652344 C 271.914062 143.625 272.019531 144.613281 272.019531 145.632812 L 272.019531 237.6875 Z M 272.015625 237.6875 "/>
</g>
</g>
</svg>
