<?xml version="1.0" encoding="UTF-8"?>
<svg xmlns="http://www.w3.org/2000/svg" xmlns:xlink="http://www.w3.org/1999/xlink" width="375pt" height="374.999991pt" viewBox="0 0 375 374.999991" version="1.2">
<defs>
<clipPath id="clip1">
  <path d="M 112.5 112.5 L 262.5 112.5 L 262.5 262.5 L 112.5 262.5 Z M 112.5 112.5 "/>
</clipPath>
</defs>
<g id="surface1">
<path style=" stroke:none;fill-rule:nonzero;fill:rgb(6.269836%,6.269836%,6.269836%);fill-opacity:1;" d="M 187.316406 183.882812 L 223.585938 161.265625 C 223.191406 161.203125 222.792969 161.164062 222.378906 161.164062 L 152.25 161.164062 C 151.839844 161.164062 151.4375 161.203125 151.046875 161.265625 Z M 187.316406 183.882812 "/>
<path style=" stroke:none;fill-rule:nonzero;fill:rgb(6.269836%,6.269836%,6.269836%);fill-opacity:1;" d="M 189.597656 192.628906 C 189.550781 192.65625 189.496094 192.679688 189.445312 192.707031 C 189.394531 192.734375 189.335938 192.765625 189.285156 192.789062 C 189 192.9375 188.707031 193.054688 188.40625 193.132812 C 188.375 193.140625 188.34375 193.144531 188.316406 193.152344 C 187.984375 193.230469 187.652344 193.28125 187.320312 193.28125 C 187.316406 193.28125 187.316406 193.28125 187.316406 193.28125 C 187.3125 193.28125 187.3125 193.28125 187.3125 193.28125 C 186.980469 193.28125 186.644531 193.234375 186.316406 193.152344 C 186.285156 193.144531 186.253906 193.140625 186.222656 193.132812 C 185.925781 193.054688 185.632812 192.9375 185.347656 192.789062 C 185.292969 192.765625 185.238281 192.734375 185.183594 192.707031 C 185.136719 192.679688 185.082031 192.65625 185.03125 192.628906 L 144.730469 167.496094 C 144.65625 167.921875 144.609375 168.355469 144.609375 168.800781 L 144.609375 209.132812 C 144.609375 213.347656 148.027344 216.769531 152.25 216.769531 L 222.378906 216.769531 C 226.597656 216.769531 230.019531 213.347656 230.019531 209.132812 L 230.019531 168.800781 C 230.019531 168.355469 229.972656 167.921875 229.898438 167.496094 Z M 189.597656 192.628906 "/>
<g clip-path="url(#clip1)" clip-rule="nonzero">
<path style=" stroke:none;fill-rule:nonzero;fill:rgb(6.269836%,6.269836%,6.269836%);fill-opacity:1;" d="M 187.515625 262.457031 C 146.175781 262.457031 112.539062 228.820312 112.539062 187.476562 C 112.539062 146.132812 146.175781 112.496094 187.515625 112.496094 C 228.863281 112.496094 262.5 146.132812 262.5 187.476562 C 262.5 228.820312 228.863281 262.457031 187.515625 262.457031 Z M 187.515625 119.890625 C 150.25 119.890625 119.933594 150.210938 119.933594 187.476562 C 119.933594 224.742188 150.25 255.0625 187.515625 255.0625 C 224.785156 255.0625 255.105469 224.742188 255.105469 187.476562 C 255.105469 150.210938 224.785156 119.890625 187.515625 119.890625 Z M 187.515625 119.890625 "/>
</g>
</g>
</svg>
