<?xml version="1.0" encoding="UTF-8"?>
<svg xmlns="http://www.w3.org/2000/svg" xmlns:xlink="http://www.w3.org/1999/xlink" width="375pt" height="374.999991pt" viewBox="0 0 375 374.999991" version="1.2">
<defs>
<clipPath id="clip1">
  <path d="M 112.5 112.5 L 262.5 112.5 L 262.5 262.5 L 112.5 262.5 Z M 112.5 112.5 "/>
</clipPath>
</defs>
<g id="surface1">
<g clip-path="url(#clip1)" clip-rule="nonzero">
<path style=" stroke:none;fill-rule:nonzero;fill:rgb(6.269836%,6.269836%,6.269836%);fill-opacity:1;" d="M 187.433594 112.457031 C 146.023438 112.457031 112.457031 146.023438 112.457031 187.433594 C 112.457031 228.84375 146.023438 262.414062 187.433594 262.414062 C 228.84375 262.414062 262.414062 228.84375 262.414062 187.433594 C 262.414062 146.023438 228.84375 112.457031 187.433594 112.457031 Z M 150.550781 160.1875 L 224.320312 160.1875 C 224.75 160.1875 225.171875 160.230469 225.585938 160.296875 L 187.433594 184.082031 L 149.285156 160.296875 C 149.699219 160.230469 150.121094 160.1875 150.550781 160.1875 Z M 232.351562 210.640625 C 232.351562 215.078125 228.753906 218.675781 224.316406 218.675781 L 150.550781 218.675781 C 146.113281 218.675781 142.515625 215.078125 142.515625 210.640625 L 142.515625 168.21875 C 142.515625 167.75 142.566406 167.292969 142.640625 166.847656 L 185.035156 193.28125 C 185.085938 193.3125 185.140625 193.335938 185.195312 193.363281 C 185.25 193.394531 185.308594 193.425781 185.363281 193.453125 C 185.664062 193.605469 185.972656 193.730469 186.289062 193.8125 C 186.320312 193.820312 186.351562 193.828125 186.386719 193.835938 C 186.730469 193.917969 187.082031 193.96875 187.429688 193.96875 C 187.433594 193.96875 187.433594 193.96875 187.433594 193.96875 C 187.4375 193.96875 187.4375 193.96875 187.4375 193.96875 C 187.789062 193.96875 188.140625 193.917969 188.488281 193.835938 C 188.519531 193.828125 188.550781 193.820312 188.582031 193.8125 C 188.898438 193.730469 189.207031 193.605469 189.507812 193.453125 C 189.5625 193.425781 189.621094 193.394531 189.675781 193.363281 C 189.730469 193.335938 189.785156 193.3125 189.835938 193.28125 L 232.226562 166.847656 C 232.304688 167.292969 232.351562 167.75 232.351562 168.21875 Z M 232.351562 210.640625 "/>
</g>
</g>
</svg>
