<?xml version="1.0" encoding="UTF-8"?>
<svg xmlns="http://www.w3.org/2000/svg" xmlns:xlink="http://www.w3.org/1999/xlink" width="375pt" height="374.999991pt" viewBox="0 0 375 374.999991" version="1.2">
<defs>
<clipPath id="clip1">
  <path d="M 44.351562 44.351562 L 330.851562 44.351562 L 330.851562 330.851562 L 44.351562 330.851562 Z M 44.351562 44.351562 "/>
</clipPath>
</defs>
<g id="surface1">
<g clip-path="url(#clip1)" clip-rule="nonzero">
<path style=" stroke:none;fill-rule:nonzero;fill:rgb(96.469116%,96.469116%,96.469116%);fill-opacity:1;" d="M 330.851562 187.601562 C 330.851562 266.746094 266.746094 330.851562 187.601562 330.851562 C 108.453125 330.851562 44.351562 266.746094 44.351562 187.601562 C 44.351562 108.453125 108.453125 44.351562 187.601562 44.351562 C 266.746094 44.351562 330.851562 108.453125 330.851562 187.601562 Z M 161.386719 263.164062 C 224.917969 263.164062 259.65625 210.519531 259.65625 164.894531 C 259.65625 163.390625 259.65625 161.886719 259.582031 160.453125 C 266.316406 155.582031 272.1875 149.496094 276.84375 142.546875 C 270.683594 145.269531 264.023438 147.132812 257.003906 147.992188 C 264.167969 143.695312 269.609375 136.960938 272.1875 128.867188 C 265.527344 132.808594 258.152344 135.671875 250.273438 137.246094 C 243.96875 130.515625 235.015625 126.359375 225.058594 126.359375 C 206.007812 126.359375 190.535156 141.832031 190.535156 160.882812 C 190.535156 163.605469 190.824219 166.257812 191.46875 168.761719 C 162.746094 167.332031 137.320312 153.578125 120.273438 132.664062 C 117.335938 137.75 115.617188 143.695312 115.617188 149.996094 C 115.617188 161.957031 121.707031 172.558594 131.015625 178.71875 C 125.359375 178.574219 120.058594 177 115.402344 174.421875 C 115.402344 174.5625 115.402344 174.707031 115.402344 174.851562 C 115.402344 191.609375 127.292969 205.507812 143.121094 208.730469 C 140.257812 209.515625 137.175781 209.945312 134.023438 209.945312 C 131.804688 209.945312 129.65625 209.730469 127.507812 209.300781 C 131.875 223.054688 144.625 233.011719 159.738281 233.296875 C 147.921875 242.535156 133.023438 248.050781 116.835938 248.050781 C 114.042969 248.050781 111.320312 247.910156 108.597656 247.550781 C 123.710938 257.433594 141.902344 263.164062 161.386719 263.164062 "/>
</g>
</g>
</svg>
